<svg id="experience" xmlns="http://www.w3.org/2000/svg" width="53.741" height="56.948" viewBox="0 0 53.741 56.948">
  <path id="Path_65" data-name="Path 65" d="M147.17,56.915l-.963.349a4.537,4.537,0,0,0-2.894,3.394l-.327,1.712a2.888,2.888,0,0,0,2.837,3.432h8.348a2.889,2.889,0,0,0,2.844-3.4l-.3-1.7a4.527,4.527,0,0,0-2.9-3.448l-1.021-.37v-1.5a.829.829,0,0,0-.01-.124,4.094,4.094,0,0,0,1.172-2.85V50.162a3.97,3.97,0,0,0-7.94,0v2.312a3.959,3.959,0,0,0,1.17,2.8.833.833,0,0,0-.007.1Zm7.9,4.081.3,1.7a1.22,1.22,0,0,1-1.2,1.435h-8.348a1.22,1.22,0,0,1-1.2-1.45l.327-1.712a2.86,2.86,0,0,1,1.824-2.14l.631-.229c.016.016.032.033.049.048a3.848,3.848,0,0,0,5.044,0,.824.824,0,0,0,.072-.072l.665.241A2.853,2.853,0,0,1,155.068,61Zm-7.392-10.834a2.3,2.3,0,0,1,4.527-.572c-.107.052-.217.1-.33.147a2.773,2.773,0,0,1-2.091.19.834.834,0,1,0-.958,1.366,2.763,2.763,0,0,0,1.592.429,5.552,5.552,0,0,0,1.862-.355V52.4a2.416,2.416,0,0,1-.724,1.713,2.331,2.331,0,0,1-.719.482l-.054.023a2.153,2.153,0,0,1-.85.152,2.312,2.312,0,0,1-2.256-2.3Zm2.224,6.281h.076a3.871,3.871,0,0,0,1.141-.172v1.335a2.178,2.178,0,0,1-2.279,0V56.275A3.916,3.916,0,0,0,149.9,56.443Z" transform="translate(-128.639 -41.055)" fill="#0278b0"/>
  <path id="Path_66" data-name="Path 66" d="M81.6,337.572h25.979a.834.834,0,1,0,0-1.668H81.6a.834.834,0,0,0,0,1.668Z" transform="translate(-73.384 -298.542)" fill="#0278b0"/>
  <path id="Path_67" data-name="Path 67" d="M81.6,378.013h25.979a.834.834,0,1,0,0-1.668H81.6a.834.834,0,1,0,0,1.668Z" transform="translate(-73.384 -334.485)" fill="#0278b0"/>
  <path id="Path_68" data-name="Path 68" d="M81.6,418.452h25.979a.834.834,0,0,0,0-1.668H81.6a.834.834,0,0,0,0,1.668Z" transform="translate(-73.384 -370.426)" fill="#0278b0"/>
  <path id="Path_69" data-name="Path 69" d="M81.6,458.893h25.979a.834.834,0,1,0,0-1.668H81.6a.834.834,0,1,0,0,1.668Z" transform="translate(-73.384 -406.369)" fill="#0278b0"/>
  <path id="Path_70" data-name="Path 70" d="M80.764,255.858a.834.834,0,0,0,.834.834h25.979a.834.834,0,1,0,0-1.668H81.6A.834.834,0,0,0,80.764,255.858Z" transform="translate(-73.384 -226.658)" fill="#0278b0"/>
  <path id="Path_71" data-name="Path 71" d="M81.6,297.132h25.979a.834.834,0,1,0,0-1.668H81.6a.834.834,0,1,0,0,1.668Z" transform="translate(-73.384 -262.6)" fill="#0278b0"/>
  <path id="Path_72" data-name="Path 72" d="M53.878,337.551a.837.837,0,1,0-.837-.837A.837.837,0,0,0,53.878,337.551Z" transform="translate(-48.745 -298.517)" fill="#0278b0"/>
  <path id="Path_73" data-name="Path 73" d="M53.878,256.671a.837.837,0,1,0-.837-.837A.837.837,0,0,0,53.878,256.671Z" transform="translate(-48.745 -226.634)" fill="#0278b0"/>
  <path id="Path_74" data-name="Path 74" d="M53.878,297.111a.837.837,0,1,0-.837-.837A.837.837,0,0,0,53.878,297.111Z" transform="translate(-48.745 -262.576)" fill="#0278b0"/>
  <path id="Path_75" data-name="Path 75" d="M53.878,377.991a.837.837,0,1,0-.837-.837A.837.837,0,0,0,53.878,377.991Z" transform="translate(-48.745 -334.459)" fill="#0278b0"/>
  <path id="Path_76" data-name="Path 76" d="M53.878,418.432a.837.837,0,1,0-.837-.837A.837.837,0,0,0,53.878,418.432Z" transform="translate(-48.745 -370.402)" fill="#0278b0"/>
  <path id="Path_77" data-name="Path 77" d="M53.878,458.872a.837.837,0,1,0-.837-.837A.837.837,0,0,0,53.878,458.872Z" transform="translate(-48.745 -406.344)" fill="#0278b0"/>
  <path id="Path_78" data-name="Path 78" d="M66.828,13.138a5.767,5.767,0,0,1-.809-1.2,6.081,6.081,0,0,1-.3-1.489A4.652,4.652,0,0,0,64.684,7.58a4.654,4.654,0,0,0-2.87-1.035,6.082,6.082,0,0,1-1.49-.3,5.762,5.762,0,0,1-1.2-.808,6.284,6.284,0,0,0-1.993-1.2V3.981A3.986,3.986,0,0,0,53.15,0H18.4a3.986,3.986,0,0,0-3.982,3.981V7.2a.834.834,0,0,0,1.668,0V3.981A2.316,2.316,0,0,1,18.4,1.668H53.15a2.316,2.316,0,0,1,2.313,2.313v.252a6.286,6.286,0,0,0-1.993,1.2,5.769,5.769,0,0,1-1.2.808,6.093,6.093,0,0,1-1.49.3,4.653,4.653,0,0,0-2.87,1.035,4.652,4.652,0,0,0-1.035,2.87,6.081,6.081,0,0,1-.3,1.489,5.763,5.763,0,0,1-.809,1.2,4.681,4.681,0,0,0-1.33,2.827,4.681,4.681,0,0,0,1.33,2.827,5.767,5.767,0,0,1,.809,1.2,6.08,6.08,0,0,1,.3,1.489,4.652,4.652,0,0,0,1.035,2.869,4.653,4.653,0,0,0,2.87,1.035c.293.036.576.072.838.121V38.116a1.281,1.281,0,0,0,2.071,1.008l1.773-1.388V52.967A2.316,2.316,0,0,1,53.15,55.28H18.4a2.316,2.316,0,0,1-2.313-2.313V10.875a.834.834,0,0,0-1.668,0V52.967A3.986,3.986,0,0,0,18.4,56.948H53.15a3.986,3.986,0,0,0,3.982-3.981V37.735l1.773,1.388a1.282,1.282,0,0,0,2.072-1.008V28.806a.834.834,0,1,0-1.668,0v8.515l-2.218-1.736a1.282,1.282,0,0,0-1.584,0l-2.22,1.738V26.35l.183.144a4.681,4.681,0,0,0,2.827,1.33,4.683,4.683,0,0,0,2.827-1.329,5.771,5.771,0,0,1,1.2-.809,6.092,6.092,0,0,1,1.49-.3,4.654,4.654,0,0,0,2.87-1.035,4.653,4.653,0,0,0,1.035-2.869,6.086,6.086,0,0,1,.3-1.489,5.763,5.763,0,0,1,.809-1.2,4.681,4.681,0,0,0,1.33-2.827,4.681,4.681,0,0,0-1.33-2.827Zm-1.309,4.62a6.989,6.989,0,0,0-1.041,1.595,7.336,7.336,0,0,0-.415,1.924,3.451,3.451,0,0,1-.559,1.894,3.452,3.452,0,0,1-1.895.559,7.339,7.339,0,0,0-1.924.415,6.988,6.988,0,0,0-1.595,1.04,3.442,3.442,0,0,1-1.793.97,3.441,3.441,0,0,1-1.793-.97,6.992,6.992,0,0,0-1.595-1.04c-.04-.017-.18-.07-.21-.079a8.3,8.3,0,0,0-1.714-.336,3.452,3.452,0,0,1-1.895-.559,3.451,3.451,0,0,1-.559-1.894,7.338,7.338,0,0,0-.415-1.924,6.992,6.992,0,0,0-1.041-1.595,3.441,3.441,0,0,1-.97-1.793,3.441,3.441,0,0,1,.97-1.793,6.988,6.988,0,0,0,1.041-1.595,7.332,7.332,0,0,0,.415-1.924,3.451,3.451,0,0,1,.559-1.894A3.452,3.452,0,0,1,50.986,8.2a7.339,7.339,0,0,0,1.924-.415A6.988,6.988,0,0,0,54.5,6.746a3.452,3.452,0,0,1,1.79-.97H56.3a3.451,3.451,0,0,1,1.79.97,6.992,6.992,0,0,0,1.595,1.04A7.334,7.334,0,0,0,61.61,8.2,3.452,3.452,0,0,1,63.5,8.76a3.451,3.451,0,0,1,.559,1.894,7.337,7.337,0,0,0,.415,1.924,6.992,6.992,0,0,0,1.041,1.595,3.441,3.441,0,0,1,.97,1.793,3.44,3.44,0,0,1-.97,1.793Z" transform="translate(-14.416 0)" fill="#0278b0"/>
  <path id="Path_79" data-name="Path 79" d="M347.389,89.963l-2.839-.8-1.641-2.451a1.054,1.054,0,0,0-1.751,0l-1.641,2.451-2.839.8a1.054,1.054,0,0,0-.541,1.665l1.825,2.318-.113,2.947a1.053,1.053,0,0,0,1.416,1.03l2.769-1.019,2.769,1.019a1.054,1.054,0,0,0,1.417-1.029l-.113-2.948,1.825-2.318a1.054,1.054,0,0,0-.541-1.665Zm-2.735,3.13a1.056,1.056,0,0,0-.224.692l.087,2.256-2.119-.78a1.055,1.055,0,0,0-.728,0l-2.12.78.087-2.257a1.058,1.058,0,0,0-.225-.692l-1.4-1.774,2.173-.615a1.055,1.055,0,0,0,.588-.428l1.256-1.876,1.256,1.876a1.057,1.057,0,0,0,.589.428l2.173.615Z" transform="translate(-300.151 -76.649)" fill="#0278b0"/>
</svg>
