<svg xmlns="http://www.w3.org/2000/svg" width="62" height="99.945" viewBox="0 0 62 99.945">
  <g id="student" transform="translate(-97.192 0)">
    <path id="Path_85" data-name="Path 85" d="M138.224,58.729a20.056,20.056,0,0,0,8.884-10.893c.069,0,.137.005.206.005a7.63,7.63,0,0,0,.829-15.215V29.317c1.4-1.41,4.809-5.741,4.117-13.967A10.794,10.794,0,0,0,148.6,7.62a12.228,12.228,0,0,0-7.7-2.54c-1.819-1.7-8.38-6.985-17.249-4.365a28.355,28.355,0,0,0-5.013,2.024,1.467,1.467,0,0,0,1.344,2.607,25.435,25.435,0,0,1,4.5-1.818C132.983,1.018,139,7.3,139.25,7.569a1.478,1.478,0,0,0,1.211.463,9.566,9.566,0,0,1,6.276,1.857,8,8,0,0,1,2.6,5.708c.531,6.312-1.654,9.8-2.843,11.193-2.925-2.271-5.569-6.978-5.6-7.03a1.477,1.477,0,0,0-2.581.032,13.188,13.188,0,0,1-8.344,6.334,11.5,11.5,0,0,0-2.345-5.751,1.476,1.476,0,0,0-2.247-.03,20.333,20.333,0,0,1-15.142,7.151,2.016,2.016,0,0,1-.538-.088c-2.552-.781-5.082-3.025-6.735-4.742a10.488,10.488,0,0,0,7.586-4.918,1.477,1.477,0,0,0-1.349-2.136,5.244,5.244,0,0,1-5.14-2.677,7.576,7.576,0,0,1-.615-1.384c5.26.26,8.485-1.383,11.563-3.253a1.467,1.467,0,0,0-1.523-2.507c-3.106,1.888-6.131,3.391-11.7,2.665a1.476,1.476,0,0,0-1.653,1.551,11.209,11.209,0,0,0,1.323,4.283,7.965,7.965,0,0,0,4.806,3.9,9.761,9.761,0,0,1-6.308,1.743,1.477,1.477,0,0,0-1.212,2.356c.189.248,4.513,5.859,9.494,7.714v2.622a7.63,7.63,0,0,0,.829,15.215c.069,0,.137,0,.206-.005a20.054,20.054,0,0,0,8.884,10.893A24.278,24.278,0,0,0,97.192,82.75V85.8a1.467,1.467,0,1,0,2.934,0V82.75A21.235,21.235,0,0,1,106.071,68l18.864,20.757a4.429,4.429,0,0,0,6.513,0l6.165-6.784A1.467,1.467,0,1,0,135.443,80l-6.166,6.784a1.473,1.473,0,0,1-2.171,0L108.243,66.027a21.371,21.371,0,0,1,2.713-1.826l16.151,17.771a1.476,1.476,0,0,0,2.171,0L145.428,64.2a21.412,21.412,0,0,1,2.713,1.826l-8.75,9.629a1.467,1.467,0,1,0,2.171,1.973L150.313,68a21.235,21.235,0,0,1,5.946,14.751V97.011h-8.734V85.565a1.467,1.467,0,1,0-2.934,0V97.011h-32.8V85.565a1.467,1.467,0,1,0-2.934,0V97.011h-8.734V91.664a1.467,1.467,0,0,0-2.934,0v6.814a1.467,1.467,0,0,0,1.467,1.467h59.066a1.467,1.467,0,0,0,1.467-1.467V82.75A24.279,24.279,0,0,0,138.224,58.729Zm-7.778,6.4h-4.508l-.832-3.687h6.172Zm21.566-24.917a4.7,4.7,0,0,1-4.156,4.665,20,20,0,0,0,.289-3.387v-5.9A4.7,4.7,0,0,1,152.011,40.211Zm-47.639,0a4.7,4.7,0,0,1,3.868-4.622v5.9a20,20,0,0,0,.289,3.387A4.7,4.7,0,0,1,104.372,40.211Zm6.8,1.278V30.407a23.572,23.572,0,0,0,15.087-6.713,6.252,6.252,0,0,1,.713,3.946,1.467,1.467,0,0,0,1.575,1.757A16.968,16.968,0,0,0,139.6,23.23a24.537,24.537,0,0,0,5.615,6.248V41.488a17.019,17.019,0,0,1-34.037,0ZM121.434,61.44h.664l1.17,5.185-1.028,5.632-8.518-9.372a21.2,21.2,0,0,1,7.711-1.444ZM128.192,78.8l-3.467-3.815,1.264-6.929h4.406l1.264,6.929Zm5.951-6.548-1.028-5.632,1.17-5.185h.664a21.2,21.2,0,0,1,7.711,1.444Z" transform="translate(0 0)" fill="#0278b0"/>
    <path id="Path_86" data-name="Path 86" d="M227.286,236.627c5.2,0,6.778-3.658,6.847-3.824h0a1.464,1.464,0,1,0-2.7-1.129c-.074.157-1.024,2.026-4.145,2.026s-4.071-1.868-4.145-2.026a1.464,1.464,0,1,0-2.7,1.129h0C220.508,232.97,222.082,236.627,227.286,236.627Z" transform="translate(-99.094 -185.723)" fill="#0278b0"/>
    <path id="Path_87" data-name="Path 87" d="M204.163,176.049a1.464,1.464,0,0,0-1.464,1.464v4.136a1.464,1.464,0,1,0,2.928,0v-4.136A1.464,1.464,0,0,0,204.163,176.049Z" transform="translate(-84.912 -141.684)" fill="#0278b0"/>
    <path id="Path_88" data-name="Path 88" d="M295.765,183.114a1.464,1.464,0,0,0,1.464-1.464v-4.136a1.464,1.464,0,0,0-2.928,0v4.136A1.464,1.464,0,0,0,295.765,183.114Z" transform="translate(-158.633 -141.685)" fill="#0278b0"/>
  </g>
</svg>
