<svg xmlns="http://www.w3.org/2000/svg" width="47.142" height="65.412" viewBox="0 0 47.142 65.412">
  <g id="teacher" transform="translate(-74.099 -3.604)">
    <g id="Group_63" data-name="Group 63" transform="translate(71.501 0)">
      <path id="Path_81" data-name="Path 81" d="M118.58,60.887c-2.914-14.633-2.788-14.01-2.8-14.071a6.293,6.293,0,0,0-3.2-4.348,7.074,7.074,0,0,0-1.7-.656l-7.16-2.487-2.386-1.637V35.834a12.626,12.626,0,0,0,6.117-9.506,3.639,3.639,0,0,0,3.726-5.092V13.425c0-5.649-3.072-7.614-4.011-8.082C102.577-.14,94-1.546,87.5,1.79l-.013.006a16.116,16.116,0,0,0-3.1,2.065.958.958,0,0,0,1.254,1.45c6.367-5.346,15.817-3.972,20.186,1.415a.921.921,0,0,0,.4.29c.124.05,3.04,1.277,3.04,6.41v6.047a4.124,4.124,0,0,0-1.736-.323V16.015a1.532,1.532,0,0,0-1.393-1.529,3.784,3.784,0,0,1-2.986-2.057,1.923,1.923,0,0,0-2.935-.53A15.5,15.5,0,0,1,87.649,15.25a4.714,4.714,0,0,0-5.332,3.9,4.144,4.144,0,0,0-1.8.322c0-3.3-.377-6.888,2.321-11a.958.958,0,0,0-1.6-1.048c-3.672,5.626-2.358,10.668-2.633,13.813a3.638,3.638,0,0,0,3.725,5.092,12.6,12.6,0,0,0,3.346,7.281h0a13.015,13.015,0,0,0,3.132,2.433V37.69l-2.386,1.636c-9.338,3.244-8.39,2.85-9.149,3.314a6.283,6.283,0,0,0-2.842,3.9c-.082.329.054-.292-2.866,14.35a5.26,5.26,0,0,0-.037,1.361c.216,2.011,1.642,3.164,3.912,3.164H101.77a.958.958,0,1,0,0-1.916H82.179V54.716a.958.958,0,1,0-1.916,0V63.5H75.44c-1.5,0-2.208-.644-1.99-2.262,2.622-12.812,2.628-13.846,3.056-14.9a4.37,4.37,0,0,1,2.514-2.443,7.65,7.65,0,0,1,.8-.248c.044-.013-.175.062,3.266-1.133l2.3,4.237a.958.958,0,0,0,1.685-.913L84.92,41.877l1.467-.51,7.652,14.124a1.176,1.176,0,0,0,1.983.137c.089-.123-.421.793,7.724-14.266l1.467.51L97.456,56.221a2.711,2.711,0,0,1-4.765,0l-3.5-6.453a.958.958,0,0,0-1.685.913l3.5,6.453a4.628,4.628,0,0,0,8.136,0l7.9-14.623c3.433,1.192,3.232,1.124,3.277,1.137.675.206.6.166.8.248a5.174,5.174,0,0,1,1.157.663,4.268,4.268,0,0,1,1.546,2.337c.045.164,2.89,14.267,2.9,14.743.028,1.2-.491,1.859-2.023,1.859h-4.822V54.716a.958.958,0,1,0-1.916,0V63.5h-1.726a.958.958,0,0,0,0,1.916H114.7c2.27,0,3.7-1.153,3.912-3.163A5.322,5.322,0,0,0,118.58,60.887ZM107.529,21.066a1.868,1.868,0,0,1,2.094,1.673,1.868,1.868,0,0,1-2.094,1.673ZM82.256,24.413a1.868,1.868,0,0,1-2.094-1.673,1.868,1.868,0,0,1,2.094-1.673Zm5.119-7.266a17.364,17.364,0,0,0,14.085-3.791l.014,0a5.685,5.685,0,0,0,4.138,2.992v3.393l-1.093.645a2.489,2.489,0,0,0-2.047-1.075H98.087a2.5,2.5,0,0,0-2.3,1.533H94a2.5,2.5,0,0,0-2.3-1.533H87.312a2.489,2.489,0,0,0-2.047,1.075l-1.088-.642A2.8,2.8,0,0,1,87.375,17.147Zm15.672,4.659v1.908a1.509,1.509,0,0,1-1.507,1.507h-2.52a1.509,1.509,0,0,1-1.507-1.507V21.806h0a.583.583,0,0,1,.575-.575h4.385A.583.583,0,0,1,103.047,21.806Zm-10.775,0v1.908a1.509,1.509,0,0,1-1.507,1.507h-2.52a1.509,1.509,0,0,1-1.507-1.507V21.806a.583.583,0,0,1,.575-.575H91.7A.583.583,0,0,1,92.272,21.806Zm-5.516,10.14c-3.1-3.615-2.5-7.124-2.584-9.976l.649.383v1.361a3.427,3.427,0,0,0,3.424,3.424h2.52a3.427,3.427,0,0,0,3.424-3.424v-.95H95.6v.95a3.427,3.427,0,0,0,3.424,3.424h2.52a3.428,3.428,0,0,0,3.424-3.424V22.353l.649-.383v3a10.717,10.717,0,0,1-10.72,10.719h-.129a10.287,10.287,0,0,1-2.8-.405A10.745,10.745,0,0,1,86.756,31.945Zm8.317,10.72-4.349-4.839V36.9a12.651,12.651,0,0,0,7.464.27,12.507,12.507,0,0,0,1.235-.4v1.062Zm1.079,3.415-.423.872H94.417l-.424-.872,1.079-.793Zm-3.6,2.636-.61-1.126.486-.357.363.748Zm-1.525-2.832L88.111,40.5l1.506-1.038,4.036,4.491Zm4.05,7.492-1.266-2.336.706-2.173h1.119l.705,2.169ZM97.6,48.709l-.237-.728.363-.748.481.353Zm1.527-2.825-2.631-1.932,4.036-4.491,1.506,1.038Z" transform="translate(-68.904 3.604)" fill="#0278b0"/>
    </g>
  </g>
</svg>
