<svg xmlns="http://www.w3.org/2000/svg" width="86.476" height="78.395" viewBox="0 0 86.476 78.395">
  <g id="university" transform="translate(0 -21.68)">
    <g id="Group_65" data-name="Group 65" transform="translate(0 21.68)">
      <g id="Group_64" data-name="Group 64" transform="translate(0 0)">
        <path id="Path_82" data-name="Path 82" d="M84.985,58.1H65.915V54.421a1.491,1.491,0,0,0-.76-1.3L44.729,41.644V35.8h4.041v2.222a1.491,1.491,0,0,0,1.491,1.491H62.441a1.491,1.491,0,0,0,1.4-2L62.62,34.04l1.238-3.4a1.491,1.491,0,0,0-1.4-2H56.91V26.481a1.491,1.491,0,0,0-1.491-1.491H44.729V23.171a1.491,1.491,0,0,0-2.982,0V41.644L21.321,53.109a1.491,1.491,0,0,0-.76,1.3v3.683H1.491A1.491,1.491,0,0,0,0,59.58v39a1.491,1.491,0,0,0,1.491,1.491H84.985a1.491,1.491,0,0,0,1.491-1.491V59.6A1.491,1.491,0,0,0,84.985,58.1ZM56.91,34.308l-.06-.06V31.684h3.4l-.611,1.908a1.491,1.491,0,0,0,0,1.029l.7,1.908H51.751V35.8h3.668A1.491,1.491,0,0,0,56.91,34.308ZM44.729,27.972h9.2v4.846h-9.2ZM20.56,97.093H2.982V61.086H20.56Zm21.187,0H33.919V80.066h7.828Zm10.809,0H44.729V80.066h7.828Zm10.437,0H55.538V78.575a1.491,1.491,0,0,0-1.491-1.491H32.428a1.491,1.491,0,0,0-1.491,1.491V97.093H23.483V55.346L43.238,44.223l19.7,11.063.06,4.294Zm20.5,0H65.915V61.086H83.494Z" transform="translate(0 -21.68)" fill="#0278b0"/>
      </g>
    </g>
    <g id="Group_67" data-name="Group 67" transform="translate(36.991 48.786)">
      <g id="Group_66" data-name="Group 66">
        <path id="Path_83" data-name="Path 83" d="M204.727,167.12a6.247,6.247,0,1,0,6.247,6.232A6.262,6.262,0,0,0,204.727,167.12Zm0,9.512a3.265,3.265,0,1,1,3.265-3.25h.015A3.265,3.265,0,0,1,204.727,176.632Z" transform="translate(-198.48 -167.12)" fill="#0278b0"/>
      </g>
    </g>
    <g id="Group_69" data-name="Group 69" transform="translate(6.575 64.366)">
      <g id="Group_68" data-name="Group 68">
        <rect id="Rectangle_14" data-name="Rectangle 14" width="2.982" height="5.964" fill="#0278b0"/>
      </g>
    </g>
    <g id="Group_71" data-name="Group 71" transform="translate(13.926 64.366)">
      <g id="Group_70" data-name="Group 70">
        <rect id="Rectangle_15" data-name="Rectangle 15" width="2.982" height="5.964" fill="#0278b0"/>
      </g>
    </g>
    <g id="Group_73" data-name="Group 73" transform="translate(28.015 64.366)">
      <g id="Group_72" data-name="Group 72">
        <rect id="Rectangle_16" data-name="Rectangle 16" width="5.964" height="2.982" fill="#0278b0"/>
      </g>
    </g>
    <g id="Group_75" data-name="Group 75" transform="translate(40.256 64.366)">
      <g id="Group_74" data-name="Group 74">
        <rect id="Rectangle_17" data-name="Rectangle 17" width="5.964" height="2.982" fill="#0278b0"/>
      </g>
    </g>
    <g id="Group_77" data-name="Group 77" transform="translate(52.497 64.366)">
      <g id="Group_76" data-name="Group 76">
        <rect id="Rectangle_18" data-name="Rectangle 18" width="5.964" height="2.982" fill="#0278b0"/>
      </g>
    </g>
    <g id="Group_79" data-name="Group 79" transform="translate(28.015 71.314)">
      <g id="Group_78" data-name="Group 78">
        <rect id="Rectangle_19" data-name="Rectangle 19" width="5.964" height="2.982" fill="#0278b0"/>
      </g>
    </g>
    <g id="Group_81" data-name="Group 81" transform="translate(40.256 71.314)">
      <g id="Group_80" data-name="Group 80">
        <rect id="Rectangle_20" data-name="Rectangle 20" width="5.964" height="2.982" fill="#0278b0"/>
      </g>
    </g>
    <g id="Group_83" data-name="Group 83" transform="translate(52.497 71.314)">
      <g id="Group_82" data-name="Group 82">
        <rect id="Rectangle_21" data-name="Rectangle 21" width="5.964" height="2.982" fill="#0278b0"/>
      </g>
    </g>
    <g id="Group_85" data-name="Group 85" transform="translate(6.575 76.1)">
      <g id="Group_84" data-name="Group 84">
        <rect id="Rectangle_22" data-name="Rectangle 22" width="2.982" height="5.964" fill="#0278b0"/>
      </g>
    </g>
    <g id="Group_87" data-name="Group 87" transform="translate(13.926 76.1)">
      <g id="Group_86" data-name="Group 86">
        <rect id="Rectangle_23" data-name="Rectangle 23" width="2.982" height="5.964" fill="#0278b0"/>
      </g>
    </g>
    <g id="Group_89" data-name="Group 89" transform="translate(6.575 87.849)">
      <g id="Group_88" data-name="Group 88">
        <rect id="Rectangle_24" data-name="Rectangle 24" width="2.982" height="5.964" fill="#0278b0"/>
      </g>
    </g>
    <g id="Group_91" data-name="Group 91" transform="translate(13.926 87.849)">
      <g id="Group_90" data-name="Group 90">
        <rect id="Rectangle_25" data-name="Rectangle 25" width="2.982" height="5.964" fill="#0278b0"/>
      </g>
    </g>
    <g id="Group_93" data-name="Group 93" transform="translate(69.568 64.366)">
      <g id="Group_92" data-name="Group 92">
        <rect id="Rectangle_26" data-name="Rectangle 26" width="2.982" height="5.964" fill="#0278b0"/>
      </g>
    </g>
    <g id="Group_95" data-name="Group 95" transform="translate(76.919 64.366)">
      <g id="Group_94" data-name="Group 94">
        <rect id="Rectangle_27" data-name="Rectangle 27" width="2.982" height="5.964" fill="#0278b0"/>
      </g>
    </g>
    <g id="Group_97" data-name="Group 97" transform="translate(69.568 76.1)">
      <g id="Group_96" data-name="Group 96">
        <rect id="Rectangle_28" data-name="Rectangle 28" width="2.982" height="5.964" fill="#0278b0"/>
      </g>
    </g>
    <g id="Group_99" data-name="Group 99" transform="translate(76.919 76.1)">
      <g id="Group_98" data-name="Group 98">
        <rect id="Rectangle_29" data-name="Rectangle 29" width="2.982" height="5.964" fill="#0278b0"/>
      </g>
    </g>
    <g id="Group_101" data-name="Group 101" transform="translate(69.568 87.849)">
      <g id="Group_100" data-name="Group 100">
        <rect id="Rectangle_30" data-name="Rectangle 30" width="2.982" height="5.964" fill="#0278b0"/>
      </g>
    </g>
    <g id="Group_103" data-name="Group 103" transform="translate(76.919 87.849)">
      <g id="Group_102" data-name="Group 102">
        <rect id="Rectangle_31" data-name="Rectangle 31" width="2.982" height="5.964" fill="#0278b0"/>
      </g>
    </g>
  </g>
</svg>
