<?xml version="1.0" encoding="utf-8"?>
<!-- Svg Vector Icons : http://www.onlinewebfonts.com/icon -->
<!DOCTYPE svg PUBLIC "-//W3C//DTD SVG 1.1//EN" "http://www.w3.org/Graphics/SVG/1.1/DTD/svg11.dtd">
<svg style="fill:white;" version="1.1" xmlns="http://www.w3.org/2000/svg" xmlns:xlink="http://www.w3.org/1999/xlink" x="0px" y="0px" viewBox="0 0 1000 1000" enable-background="new 0 0 1000 1000" xml:space="preserve">
<metadata> Svg Vector Icons : http://www.onlinewebfonts.com/icon </metadata>
<g><path d="M577.1,15.3c105.7,0,211.4,40.3,292,120.9S990,322.5,990,428.2h-85.5c0-83.8-32-167.6-95.9-231.6c-63.9-63.9-147.7-95.9-231.5-95.9V15.3z"/><path d="M577.1,263.3c42.2,0,84.4,16.1,116.6,48.3C725.9,343.8,742,386,742,428.2h86.2c0-64.3-24.5-128.5-73.6-177.6c-49-49-113.3-73.5-177.6-73.5V263.3L577.1,263.3z"/><path d="M640.6,364.7c-35.8-35.7-93.7-35.7-129.5,0l129.5,129.5C676.4,458.4,676.4,400.4,640.6,364.7z"/><path d="M86.1,88.6C-192.6,659,342.3,1184.6,907,909.4L86.1,88.6z"/></g>
</svg>