<?xml version="1.0"?>
<svg xmlns="http://www.w3.org/2000/svg" xmlns:xlink="http://www.w3.org/1999/xlink" xmlns:svgjs="http://svgjs.com/svgjs" version="1.1" width="512" height="512" x="0" y="0" viewBox="0 0 64 64" style="enable-background:new 0 0 512 512" xml:space="preserve" class=""><g><g xmlns="http://www.w3.org/2000/svg"><path d="m21.293 37.707c.191.191.447.293.707.293.129 0 .259-.025.383-.076.373-.155.617-.52.617-.924v-6h4c2.757 0 5-2.243 5-5v-10c0-.552-.448-1-1-1s-1 .448-1 1v10c0 1.654-1.346 3-3 3h-5c-.552 0-1 .448-1 1v4.586l-5.293-5.293c-.187-.188-.442-.293-.707-.293h-8c-1.654 0-3-1.346-3-3v-19c0-1.654 1.346-3 3-3h20c1.654 0 3 1.346 3 3v5c0 .552.448 1 1 1s1-.448 1-1v-5c0-2.757-2.243-5-5-5h-20c-2.757 0-5 2.243-5 5v19c0 2.757 2.243 5 5 5h7.586z" fill="#ffffff" data-original="#000000" style=""/><path d="m17 14h-1.5c-.552 0-1 .448-1 1v6c0 .552.448 1 1 1h1.5c1.378 0 2.5-1.122 2.5-2.5 0-.565-.195-1.081-.513-1.5.317-.419.513-.935.513-1.5 0-1.378-1.122-2.5-2.5-2.5zm-.5 2h.5c.276 0 .5.224.5.5s-.224.5-.5.5h-.5zm.5 4h-.5v-1h.5c.276 0 .5.224.5.5s-.224.5-.5.5z" fill="#ffffff" data-original="#000000" style=""/><path d="m10 25c0 .552.448 1 1 1h12c.552 0 1-.448 1-1v-18c0-.552-.448-1-1-1h-10c-1.654 0-3 1.346-3 3v12c0 .552.448 1 1 1s1-.448 1-1v-9.184c.314.112.648.184 1 .184h9v12h-11c-.552 0-1 .448-1 1zm3-15c-.551 0-1-.449-1-1s.449-1 1-1h9v2z" fill="#ffffff" data-original="#000000" style=""/><path d="m24 51c0-1.654-1.346-3-3-3s-3 1.346-3 3 1.346 3 3 3 3-1.346 3-3zm-4 0c0-.551.449-1 1-1s1 .449 1 1-.449 1-1 1-1-.449-1-1z" fill="#ffffff" data-original="#000000" style=""/><path d="m61 49c-.552 0-1 .448-1 1v6c0 2.206-1.794 4-4 4h-11v-3.087l10.09-.917c.515-.047.91-.479.91-.996v-8c0-.552-.448-1-1-1s-1 .448-1 1v7.087l-10.047.913h-2.2c-.185-.855-.472-1.675-.858-2.447-.586-1.171-.895-2.481-.895-3.789v-3.764c0-2.185 1.224-4.167 3.08-5.212.367 1.829 1.984 3.212 3.92 3.212 2.607 0 4.824-1.673 5.65-4h.35c3.86 0 7 3.14 7 7 0 .552.448 1 1 1s1-.448 1-1c0-4.962-4.038-9-9-9v-1.712c.822-.933 1.428-2.061 1.745-3.317.086.006.168.029.255.029 2.206 0 4-2.019 4-4.5 0-.079-.017-.153-.021-.231.659-1.177 1.021-2.475 1.021-3.788 0-3.153-1.596-6.033-4.27-7.704l-1.579-.987c-2.921-1.825-6.587-1.894-9.338-.174-1.814 1.134-2.813 2.691-2.813 4.384 0 .281.039.565.1.849-1.265 1.316-2.174 2.914-2.667 4.65-.91-.922-1.433-2.164-1.433-3.499 0-1.859 1.021-3.554 2.666-4.423.488-.258.675-.863.417-1.351s-.862-.674-1.351-.417c-2.302 1.217-3.732 3.589-3.732 6.191 0 2.326 1.136 4.444 3.04 5.753-.017.252-.04.502-.04.756v2.491c0 2.953 1.613 5.532 4 6.918v.697c-1.783.728-3.232 2.058-4.098 3.726l-5.712 5.711-.255-2.548c-.256-2.568-2.394-4.504-4.975-4.504h-13.96c-1.41 0-2.762.6-3.708 1.646-.946 1.045-1.408 2.449-1.268 3.852l.355 3.556c.055.55.553.954 1.095.896.549-.055.95-.545.896-1.095l-.355-3.556c-.085-.854.185-1.675.76-2.311.577-.637 1.367-.988 2.225-.988h13.96c1.548 0 2.831 1.161 2.985 2.702l1.42 14.199c.029.285-.061.559-.253.771-.192.211-.455.328-.741.328h-16.171c-1.548 0-2.831-1.162-2.985-2.702l-.446-4.464c-.055-.549-.539-.949-1.095-.896-.549.055-.95.545-.896 1.095l.446 4.464c.258 2.567 2.397 4.503 4.976 4.503h40.8c3.309 0 6-2.691 6-6v-6c0-.552-.448-1-1-1zm-14-8c-1.103 0-2-.897-2-2v-1.263c.641.166 1.308.263 2 .263 1.454 0 2.819-.393 4-1.075v.075c0 2.206-1.794 4-4 4zm8-11c-1.103 0-2-1.122-2-2.5s.897-2.5 2-2.5 2 1.122 2 2.5-.897 2.5-2 2.5zm-.33-12.527c2.085 1.303 3.33 3.549 3.33 6.008 0 .318-.037.635-.091.949-.731-.875-1.76-1.43-2.909-1.43-.025 0-.048.008-.073.008-.307-3.119-2.022-5.906-4.66-7.559.975.143 1.942.485 2.824 1.037zm-8.797-1.161c.239-.149.489-.275.744-.389l1.474.632c2.588 1.109 4.377 3.458 4.805 6.18-.54-.265-1.134-.415-1.741-.401-2.683.066-5.247-1.023-7.049-3.007-.023-.025-.054-.036-.079-.059-.013-.089-.027-.179-.027-.268 0-.978.665-1.933 1.873-2.688zm-4.873 13.688v-2.491c0-2.264.851-4.439 2.361-6.099 2.13 1.946 4.937 3.001 7.848 2.924.282-.017.561.056.816.186-.63.796-1.025 1.833-1.025 2.98 0 .877.233 1.69.621 2.383l-.77.554c-1.421 1.022-3.099 1.563-4.851 1.563-.552 0-1 .448-1 1s.448 1 1 1c2.174 0 4.255-.671 6.019-1.94l.769-.553c-.673 2.609-3.016 4.493-5.788 4.493-3.309 0-6-2.691-6-6zm-5.445 26 3.251-3.251c.096.234.186.471.299.698.28.56.471 1.162.621 1.78-.501.17-.954.432-1.344.773zm2.445-10.93v3.694c0 .601.07 1.198.173 1.791l-4.211 4.211-.514-5.143zm-3.715 12.93h2.857c-.084.322-.142.653-.142 1v1h-2.808c.146-.413.208-.855.164-1.299zm4.715 1c0-1.103.897-2 2-2h2v3h-4z" fill="#ffffff" data-original="#000000" style=""/><circle cx="43" cy="27" r="1" fill="#ffffff" data-original="#000000" style=""/><circle cx="48" cy="27" r="1" fill="#ffffff" data-original="#000000" style=""/></g></g></svg>
